# xmcd CD database file
#
# Track frame offsets:
#	150
#	19898
#	37918
#	52539
#	79507
#	96587
#	113489
#	130816
#	146482
#	165801
#	183891
#	204388
#	222346
#	244365
#
# Disc length: 3505 seconds
#
# Revision: 4
# Processed by: cddbd v1.5.2PL0 Copyright (c) Steve Scherf et al.
# Submitted via: cdripper 1,0,39,0213
#
DISCID=ad0daf0e
DTITLE=Shaggy - Mr. Lover Lover (The Best Of Shaggy ... Part1)
DYEAR=1900
DGENRE=Reggae
TTITLE0=Boombastic (Sting Remix)
TTITLE1=In The Summertime (feat. Rayvon)
TTITLE2=Oh Carolina
TTITLE3=Luv Me Luv Me (feat. Janet Jackson)
TTITLE4=Nice And Lovely
TTITLE5=The Train Is Coming
TTITLE6=Why You Treat Me So Bad
TTITLE7=Big Up (feat. Rayvon)
TTITLE8=Piece Of My Heart
TTITLE9=Sexy Body Girl
TTITLE10=Something Different
TTITLE11=That Girl
TTITLE12=Get Up, Stand Up
TTITLE13=Boombastic
EXTD=
EXTT0=
EXTT1=
EXTT2=
EXTT3=
EXTT4=
EXTT5=
EXTT6=
EXTT7=
EXTT8=
EXTT9=
EXTT10=
EXTT11=
EXTT12=
EXTT13=
PLAYORDER=
